<svg id="图层_1" data-name="图层 1" xmlns="http://www.w3.org/2000/svg" viewBox="0 0 36 36"><title>官网重构svg</title><g id="_编组_" data-name="&lt;编组&gt;"><g id="_编组_2" data-name="&lt;编组&gt;"><path d="M18,16.27a.75.75,0,0,1-.75-.75V11.78a.75.75,0,0,1,1.5,0v3.74A.75.75,0,0,1,18,16.27Z" /></g></g><g id="_编组_3" data-name="&lt;编组&gt;"><g id="_编组_4" data-name="&lt;编组&gt;"><path d="M24.72,19.15H21a.75.75,0,0,1,0-1.5h3.74a.75.75,0,1,1,0,1.5Z" /></g></g><circle cx="18.03" cy="18.04" r="1" /><path d="M18,30A12,12,0,1,1,30,18,12,12,0,0,1,18,30ZM18,8A10,10,0,1,0,28,18,10,10,0,0,0,18,8Z" /></svg>
